<svg version="1.1" id="Layer_1" xmlns="http://www.w3.org/2000/svg" xmlns:xlink="http://www.w3.org/1999/xlink" x="0px" y="0px"
	 width="100%" viewBox="0 0 2160 2160" enable-background="new 0 0 2160 2160" xml:space="preserve">
<path fill="#000000" opacity="1.000000" stroke="none" 
	d="
M1258.000000,2162.000000 
	C838.714966,2162.000000 420.429871,2162.000000 2.072410,2162.000000 
	C2.072410,1442.131348 2.072410,722.262695 2.072410,2.197036 
	C721.785522,2.197036 1441.571045,2.197036 2161.678223,2.197036 
	C2161.678223,721.999878 2161.678223,1441.999878 2161.678223,2162.000000 
	C1860.928345,2162.000000 1559.964233,2162.000000 1258.000000,2162.000000 
z"/>
<path fill="#F6F6F6" opacity="1.000000" stroke="none" 
	d="
M1185.857544,795.201050 
	C1192.939087,794.643433 1199.253540,794.489014 1205.566284,794.283020 
	C1208.668457,794.181763 1211.477539,794.869080 1213.831055,796.997803 
	C1215.333740,798.356995 1216.966675,799.459229 1219.038208,799.760193 
	C1233.026367,801.792542 1240.270386,812.425964 1247.912476,822.503845 
	C1249.092651,824.060303 1249.924316,825.900940 1250.790527,827.672119 
	C1254.133301,834.507568 1258.135376,839.412659 1267.206787,838.431824 
	C1273.739502,837.725342 1278.568604,843.563599 1283.567749,846.894592 
	C1289.822144,851.062012 1296.603760,856.773132 1299.308594,863.391052 
	C1303.470581,873.573975 1309.285034,883.699768 1307.562866,895.942993 
	C1306.601929,902.774719 1306.722168,909.489990 1302.391968,915.370728 
	C1300.321533,918.182678 1300.607056,920.534668 1304.347412,922.406433 
	C1315.348877,927.912048 1324.067139,936.562866 1329.666626,947.053040 
	C1333.080322,953.448059 1337.228394,960.420715 1337.808105,967.995056 
	C1338.739258,980.161682 1339.075806,991.948547 1333.334961,1003.943481 
	C1327.593750,1015.939148 1320.101196,1025.543579 1309.961182,1033.658447 
	C1305.675659,1037.088013 1298.607666,1035.588379 1296.118408,1042.477051 
	C1305.821289,1056.664673 1310.829834,1072.715698 1306.125244,1090.380615 
	C1302.346680,1104.568481 1295.209961,1117.285522 1282.841797,1125.637329 
	C1276.728149,1129.765747 1269.905029,1133.679688 1262.430176,1135.245728 
	C1257.590698,1136.259521 1254.726929,1137.563965 1254.980103,1143.436890 
	C1255.328979,1151.531372 1249.247681,1157.385864 1245.288940,1163.479980 
	C1241.195068,1169.782104 1235.129028,1175.946533 1228.473633,1179.211670 
	C1212.898193,1186.853271 1196.526001,1193.886475 1179.320801,1182.621948 
	C1171.013672,1182.390869 1165.636475,1176.653564 1159.841187,1171.941284 
	C1155.629883,1168.517090 1153.292236,1163.170776 1148.224609,1159.885498 
	C1141.698120,1164.573730 1138.063354,1172.343018 1131.022827,1176.802124 
	C1117.184937,1185.566528 1102.219727,1191.451294 1086.263916,1186.603638 
	C1070.491821,1181.811646 1055.721924,1174.344849 1047.973633,1157.599243 
	C1045.339355,1151.906006 1041.167603,1147.161255 1042.089722,1140.301514 
	C1042.492188,1137.307739 1039.925781,1136.042725 1037.677734,1135.875977 
	C1029.058350,1135.236084 1021.636902,1130.892212 1015.350281,1126.157227 
	C1007.049438,1119.905151 997.650574,1114.028809 995.281250,1101.860596 
	C994.379456,1097.229736 990.940857,1092.655640 989.658630,1087.586304 
	C986.838013,1076.435303 988.748657,1066.115601 994.351318,1056.203369 
	C996.913696,1051.669922 996.798035,1045.894531 1000.905884,1042.157715 
	C998.413330,1038.162231 995.612854,1035.624634 990.769104,1035.648926 
	C987.159424,1035.666992 985.259888,1032.142090 982.698364,1030.167847 
	C964.415161,1016.075867 951.982605,986.174561 959.865173,964.841492 
	C965.016907,950.899109 969.955566,936.276306 984.828003,928.814880 
	C985.347107,928.554443 985.739746,927.861328 985.994324,927.283142 
	C987.907166,922.938599 994.495667,923.778564 995.622620,919.337585 
	C996.638611,915.334045 991.933411,912.986389 990.835938,908.939758 
	C987.385986,896.219727 988.670837,884.727600 993.706421,872.479858 
	C997.621155,862.958496 1002.712708,854.763367 1010.476746,848.771362 
	C1017.756165,843.153503 1025.314087,836.854126 1035.864258,838.087341 
	C1039.218628,838.479492 1041.312012,837.114807 1042.985352,833.170776 
	C1048.337280,820.556335 1056.074219,809.103821 1068.519165,802.709961 
	C1081.085327,796.253723 1094.960938,790.429932 1109.088989,795.162048 
	C1121.692871,799.383728 1134.867798,804.233459 1142.789551,816.597534 
	C1144.011963,818.505615 1145.916626,819.980957 1147.543091,821.619568 
	C1147.742920,821.820801 1148.174194,821.792236 1149.095581,822.013794 
	C1154.463501,815.939026 1159.375366,808.975708 1166.798950,804.467834 
	C1170.202148,802.401306 1172.997559,799.580261 1177.439575,799.893738 
	C1180.790649,800.130249 1182.235229,796.504578 1185.857544,795.201050 
z"/>
<path fill="#F6F6F6" opacity="1.000000" stroke="none" 
	d="
M806.710144,1268.519043 
	C809.882935,1271.547485 810.841614,1275.061401 811.091248,1278.156250 
	C811.947327,1288.770020 817.598022,1297.832764 819.957336,1307.877441 
	C821.585510,1314.809937 822.941223,1321.716797 826.997131,1328.630493 
	C830.202087,1321.644287 834.400757,1315.763184 834.609009,1308.232544 
	C834.653809,1306.609497 835.236755,1304.976196 835.724060,1303.394531 
	C838.810425,1293.377563 842.411987,1283.488159 844.872864,1273.321777 
	C846.292358,1267.457764 849.157715,1265.643677 854.628784,1266.251587 
	C856.603577,1266.471069 858.643433,1266.107422 860.617432,1266.330078 
	C865.949768,1266.932007 868.131592,1270.108521 865.514160,1275.022705 
	C859.328796,1286.635254 856.533203,1299.530884 852.699585,1311.792236 
	C848.792419,1324.288696 843.079468,1336.232300 840.422363,1349.123169 
	C840.154663,1350.421753 840.134583,1351.899292 839.470703,1352.963989 
	C837.628235,1355.919189 836.035034,1360.305908 833.373901,1361.181641 
	C829.173096,1362.564209 824.176453,1361.666504 819.526917,1361.480103 
	C817.660034,1361.405273 816.883789,1359.629395 816.385742,1358.042236 
	C814.613770,1352.394165 811.205017,1347.300415 811.518127,1340.938477 
	C811.804016,1335.130005 806.726379,1331.070679 805.895081,1325.250732 
	C804.776367,1317.417480 802.945557,1309.521484 798.402832,1302.684814 
	C795.554504,1307.076904 790.176392,1320.557495 789.771118,1324.313232 
	C789.664612,1325.301392 789.760864,1326.373779 789.403992,1327.262939 
	C785.727051,1336.424561 782.534790,1345.757690 780.232605,1355.347046 
	C778.475586,1362.665161 773.040771,1361.718506 767.724243,1361.756714 
	C762.754089,1361.792480 760.265869,1360.640503 757.552917,1355.184692 
	C752.056763,1344.131592 748.865906,1332.211426 745.596008,1320.796875 
	C742.236755,1309.070312 734.968079,1298.420044 735.053589,1285.500488 
	C735.079102,1281.645630 730.717834,1278.257690 729.775330,1273.898071 
	C728.672058,1268.794800 730.006775,1266.664795 735.159973,1266.308716 
	C736.817871,1266.194092 738.490173,1266.278320 740.155823,1266.287720 
	C749.401001,1266.340454 751.782532,1267.771729 751.799805,1276.876953 
	C751.808105,1281.239136 754.955261,1283.142578 755.734619,1286.619629 
	C759.032043,1301.330444 764.142517,1315.511230 768.936951,1329.956543 
	C771.637573,1326.834229 773.809448,1323.828735 773.274414,1319.312500 
	C773.019592,1317.161255 774.107788,1314.762695 774.900696,1312.590454 
	C778.597961,1302.461548 782.524963,1292.397095 783.940308,1281.618042 
	C784.611267,1276.508301 789.774658,1273.506592 789.938171,1268.161377 
	C789.985779,1266.605591 791.543701,1266.125244 792.913574,1266.336060 
	C797.353760,1267.019409 802.143555,1264.602295 806.710144,1268.519043 
z"/>
<path fill="#F6F6F6" opacity="1.000000" stroke="none" 
	d="
M1158.304932,1350.411865 
	C1153.553589,1354.572754 1148.558472,1356.150635 1143.315552,1358.199097 
	C1127.698730,1364.301147 1111.835571,1360.779541 1096.136230,1361.583252 
	C1087.448853,1362.027954 1086.332642,1360.486206 1086.311890,1351.943726 
	C1086.251343,1326.971436 1086.248413,1301.998901 1086.311890,1277.026611 
	C1086.335327,1267.771973 1087.880249,1266.364136 1097.528076,1266.301880 
	C1106.184814,1266.246094 1114.904297,1266.942017 1123.483154,1266.122803 
	C1133.900269,1265.128174 1143.832153,1267.792114 1151.972412,1272.718872 
	C1161.192017,1278.299072 1170.218140,1285.364746 1172.288330,1298.082031 
	C1173.313477,1304.379150 1177.100830,1310.295166 1175.913940,1317.100952 
	C1173.690308,1329.850708 1169.902710,1341.839233 1158.304932,1350.411865 
z"/>
<path fill="#F9F9F9" opacity="1.000000" stroke="none" 
	d="
M1451.352295,1350.269775 
	C1453.092163,1352.777954 1454.646729,1354.528931 1454.549072,1357.113525 
	C1454.431885,1360.212402 1453.617798,1362.176514 1449.856445,1361.761475 
	C1446.893555,1361.434326 1443.847534,1361.487793 1440.871338,1361.747681 
	C1436.996704,1362.085938 1434.426270,1360.647095 1433.184692,1356.994751 
	C1430.958618,1350.446167 1424.525269,1346.259277 1423.324585,1339.070557 
	C1422.911743,1336.599243 1420.290039,1335.696045 1418.229980,1334.638306 
	C1417.675293,1334.353638 1416.919556,1334.474243 1416.261108,1334.376099 
	C1400.021729,1331.951782 1398.475708,1333.332642 1398.339233,1349.964844 
	C1398.307617,1353.814453 1399.793701,1358.618652 1395.239502,1360.703857 
	C1390.629639,1362.814697 1385.314331,1362.331787 1380.557495,1361.071411 
	C1377.163086,1360.171997 1377.616821,1356.351685 1377.620972,1353.335449 
	C1377.642944,1337.340942 1377.631226,1321.346436 1377.631348,1305.351929 
	C1377.631470,1295.022217 1377.525269,1284.690918 1377.668701,1274.363159 
	C1377.767334,1267.267700 1378.640381,1266.410278 1385.749756,1266.336182 
	C1397.411011,1266.214722 1409.112183,1265.710938 1420.728271,1266.445679 
	C1437.142944,1267.483887 1452.367798,1277.303223 1455.312012,1295.530396 
	C1456.925415,1305.519409 1452.573975,1322.215210 1437.775391,1329.422485 
	C1442.362427,1336.108765 1445.488403,1343.575684 1451.352295,1350.269775 
z"/>
<path fill="#F6F6F6" opacity="1.000000" stroke="none" 
	d="
M1025.735840,1266.290161 
	C1040.616577,1266.128662 1052.452759,1270.634155 1061.326294,1281.774536 
	C1061.947754,1282.554688 1062.858765,1283.193848 1063.229492,1284.070190 
	C1066.571899,1291.971313 1064.589355,1300.442261 1064.881958,1308.519409 
	C1065.166626,1316.379639 1060.018066,1323.439087 1052.327637,1327.264160 
	C1048.491943,1329.171997 1048.379639,1331.489380 1051.072876,1334.074463 
	C1056.616089,1339.395386 1059.390747,1346.595703 1063.937256,1352.630371 
	C1069.003784,1359.355225 1067.348022,1361.482056 1059.049072,1361.700073 
	C1056.720093,1361.761230 1054.371948,1361.532227 1052.061401,1361.747192 
	C1048.151367,1362.110962 1045.110962,1360.051270 1044.027344,1357.004639 
	C1041.672485,1350.384277 1035.751221,1345.947021 1033.820923,1339.280884 
	C1033.054443,1336.634155 1031.513306,1334.944580 1029.203125,1334.804565 
	C1023.247314,1334.443726 1017.257202,1334.489746 1011.286011,1334.616577 
	C1008.634216,1334.672729 1008.435059,1336.946777 1008.418762,1338.984375 
	C1008.370789,1344.976929 1008.297791,1350.971069 1008.399048,1356.962036 
	C1008.456238,1360.339600 1007.025146,1361.901489 1003.655762,1361.704468 
	C1002.992432,1361.665649 1002.323669,1361.686523 1001.658691,1361.711670 
	C988.509949,1362.210205 988.294556,1362.010986 988.291809,1348.887695 
	C988.286621,1324.583496 988.252686,1300.279053 988.309753,1275.974976 
	C988.331360,1266.785156 988.761719,1266.387207 997.811829,1266.307617 
	C1006.800415,1266.228638 1015.790161,1266.290283 1025.735840,1266.290161 
z"/>
<path fill="#F8F8F8" opacity="1.000000" stroke="none" 
	d="
M1524.624023,1267.029907 
	C1541.047974,1270.383301 1552.344482,1279.475586 1559.784546,1293.114258 
	C1563.945435,1300.741699 1564.013062,1309.552246 1563.647095,1318.093506 
	C1563.016113,1332.811768 1556.526367,1344.446167 1544.389160,1352.866577 
	C1536.989502,1358.000366 1528.259766,1360.407471 1519.780518,1361.364380 
	C1507.964722,1362.697876 1495.882446,1361.531250 1483.921509,1361.783203 
	C1479.073853,1361.885376 1477.551270,1359.988892 1477.571533,1355.356445 
	C1477.691895,1327.768188 1477.693604,1300.179077 1477.570923,1272.590820 
	C1477.550171,1267.909302 1479.177856,1266.097534 1483.974609,1266.223877 
	C1497.251831,1266.573486 1510.538452,1266.563721 1524.624023,1267.029907 
z"/>
<path fill="#F7F7F7" opacity="1.000000" stroke="none" 
	d="
M945.917847,1356.280151 
	C935.613037,1359.973511 926.003967,1363.216553 915.566467,1361.709839 
	C901.877869,1359.733887 889.752991,1354.390625 881.448120,1343.115845 
	C879.218567,1340.088989 876.610107,1336.909668 874.995728,1333.325317 
	C873.507751,1330.021851 872.679077,1326.607666 873.135742,1322.833740 
	C873.612610,1318.892334 874.077271,1314.791382 873.512390,1310.910889 
	C871.539795,1297.359131 877.500977,1288.151123 887.572205,1279.658447 
	C898.227783,1270.672852 909.788452,1264.668213 923.528748,1265.830566 
	C950.130371,1268.080933 972.699524,1287.505859 971.584778,1316.098022 
	C970.893677,1333.822754 961.150513,1346.559082 945.917847,1356.280151 
z"/>
<path fill="#F8F8F8" opacity="1.000000" stroke="none" 
	d="
M1331.261963,1357.919434 
	C1321.853149,1361.821777 1312.612915,1363.064575 1303.617188,1361.485596 
	C1290.934082,1359.259277 1279.534424,1354.431152 1270.813232,1343.630249 
	C1261.923950,1332.621094 1261.486694,1320.638794 1261.915283,1307.565674 
	C1262.502563,1289.654785 1273.608521,1280.357544 1287.377441,1272.169800 
	C1297.339233,1266.246094 1307.866821,1263.929565 1318.864502,1266.467407 
	C1332.712036,1269.662720 1345.358398,1276.118042 1352.894165,1288.658936 
	C1360.216309,1300.844604 1363.096924,1313.976562 1357.873047,1328.452637 
	C1353.009033,1341.931763 1343.936157,1350.891846 1331.261963,1357.919434 
z"/>
<path fill="#F5F5F5" opacity="1.000000" stroke="none" 
	d="
M1204.581055,1361.719482 
	C1202.318237,1361.718262 1200.975342,1361.611694 1199.654053,1361.735229 
	C1195.475586,1362.125977 1193.365234,1360.463745 1193.605591,1356.088501 
	C1193.733398,1353.763306 1193.609863,1351.424438 1193.609741,1349.091797 
	C1193.608398,1324.097778 1193.556274,1299.103638 1193.640991,1274.109863 
	C1193.666992,1266.450684 1193.839600,1266.447144 1201.458984,1266.284790 
	C1202.791382,1266.256348 1204.126831,1266.235107 1205.457764,1266.289062 
	C1212.590820,1266.578369 1213.575195,1267.374512 1213.676514,1274.405029 
	C1213.834839,1285.400146 1213.719116,1296.399170 1213.719360,1307.396606 
	C1213.719604,1316.727661 1213.662476,1326.059326 1213.739136,1335.389771 
	C1213.794556,1342.146240 1213.873169,1342.199951 1220.947998,1342.265259 
	C1228.278931,1342.332886 1235.612305,1342.197876 1242.942261,1342.303345 
	C1250.917603,1342.418213 1251.511841,1343.067017 1251.718628,1350.720581 
	C1251.996460,1361.015869 1251.440186,1361.663574 1241.502441,1361.707031 
	C1229.505371,1361.759521 1217.508179,1361.719360 1204.581055,1361.719482 
z"/>
<path fill="#F1F1F1" opacity="1.000000" stroke="none" 
	d="
M1043.552368,1397.604126 
	C1047.614502,1397.496338 1049.282471,1399.788208 1049.809204,1402.385864 
	C1051.265747,1409.569824 1055.537109,1415.382446 1058.566162,1422.864380 
	C1061.789429,1419.600342 1064.334595,1417.157471 1064.154297,1412.767822 
	C1063.950317,1407.802124 1067.734253,1404.359131 1069.565186,1400.163208 
	C1071.129028,1396.579468 1074.549805,1397.524414 1077.423950,1397.778076 
	C1080.782715,1398.074463 1080.373291,1400.872437 1080.384521,1403.110107 
	C1080.441406,1414.420898 1080.412720,1425.732178 1080.408691,1437.043213 
	C1080.407715,1439.875000 1080.158203,1442.601562 1076.280884,1442.329956 
	C1072.701050,1442.079346 1072.394897,1439.448364 1072.235718,1436.619385 
	C1072.036987,1433.090210 1072.941772,1429.474976 1071.359497,1425.359741 
	C1067.899658,1428.795044 1064.380127,1431.444702 1064.401367,1436.753784 
	C1064.412964,1439.654053 1062.284424,1441.700317 1059.491699,1442.191895 
	C1056.285034,1442.756348 1054.931274,1440.174316 1053.691162,1437.769531 
	C1052.359131,1435.186401 1051.021484,1432.605957 1049.261963,1429.203857 
	C1047.108032,1432.305054 1047.868408,1434.878784 1047.758179,1437.223877 
	C1047.574219,1441.135254 1045.143555,1442.270630 1041.794189,1442.367554 
	C1038.123657,1442.473999 1036.258545,1440.683594 1036.262451,1436.967285 
	C1036.274536,1425.656250 1036.274658,1414.345093 1036.265991,1403.034058 
	C1036.262573,1398.579224 1038.947266,1397.395630 1043.552368,1397.604126 
z"/>
<path fill="#F6F6F6" opacity="1.000000" stroke="none" 
	d="
M1125.741455,1397.637695 
	C1130.052856,1398.108398 1130.655273,1400.501953 1130.236450,1403.447510 
	C1129.764282,1406.769531 1127.062256,1406.282471 1124.837891,1406.351929 
	C1121.188232,1406.465942 1117.532837,1406.381226 1113.881226,1406.449829 
	C1111.384644,1406.496826 1110.598022,1408.076416 1110.422241,1410.337280 
	C1110.229614,1412.814209 1111.326782,1414.029541 1113.700439,1414.173706 
	C1115.355225,1414.274170 1117.017578,1414.241333 1118.676025,1414.287842 
	C1126.185791,1414.498413 1126.185669,1414.500977 1125.703003,1423.744141 
	C1121.996338,1423.744141 1118.151245,1423.796021 1114.308350,1423.727295 
	C1111.334595,1423.674194 1110.364014,1425.128052 1110.357910,1427.965576 
	C1110.351929,1430.771484 1111.234253,1432.312378 1114.239258,1432.260376 
	C1117.226440,1432.208740 1120.226929,1432.115845 1123.201416,1432.325806 
	C1128.299561,1432.685669 1130.762573,1434.908203 1130.333618,1438.525513 
	C1129.821411,1442.846313 1126.506958,1442.362183 1123.537109,1442.372437 
	C1117.891846,1442.391846 1112.244629,1442.280396 1106.602295,1442.407471 
	C1103.232666,1442.483398 1101.707153,1440.964111 1101.701538,1437.713135 
	C1101.681519,1426.091553 1101.684204,1414.470093 1101.647949,1402.848511 
	C1101.636597,1399.196289 1103.130371,1397.436401 1107.036255,1397.572021 
	C1113.006226,1397.779419 1118.988892,1397.624512 1125.741455,1397.637695 
z"/>
<path fill="#ECECEC" opacity="1.000000" stroke="none" 
	d="
M1172.417969,1438.769897 
	C1164.419189,1442.801636 1156.680420,1443.325806 1148.474609,1441.661133 
	C1148.474609,1427.179199 1148.474609,1412.931152 1148.474609,1398.643066 
	C1152.733765,1396.670654 1157.122070,1397.501221 1161.330933,1397.656982 
	C1173.033569,1398.089600 1179.391846,1405.749512 1179.830322,1417.668701 
	C1180.124634,1425.668457 1179.407227,1432.780884 1172.417969,1438.769897 
z"/>
<path fill="#F5F5F5" opacity="1.000000" stroke="none" 
	d="
M1244.072754,1397.643311 
	C1250.758789,1401.765747 1253.319214,1408.569092 1255.045410,1414.756470 
	C1256.711914,1420.729248 1259.672485,1426.058350 1261.358398,1431.923218 
	C1262.305420,1435.217285 1265.884155,1438.467407 1261.348999,1441.545166 
	C1256.240723,1445.012085 1254.726196,1439.490723 1253.387695,1437.162109 
	C1250.668579,1432.430786 1246.900635,1432.566284 1242.459229,1432.238647 
	C1237.417969,1431.866821 1236.891113,1436.182983 1234.403076,1438.479126 
	C1232.452148,1440.279297 1231.571533,1444.064209 1227.353882,1441.350098 
	C1223.673584,1438.981812 1224.783203,1436.728760 1226.169434,1433.821533 
	C1231.368530,1422.919678 1234.141113,1411.038452 1239.655884,1400.238892 
	C1240.587524,1398.414185 1241.758179,1397.931641 1244.072754,1397.643311 
z"/>
<path fill="#ECECEC" opacity="1.000000" stroke="none" 
	d="
M1198.233887,1423.787354 
	C1198.240356,1416.532227 1198.180420,1410.229004 1198.279053,1403.928223 
	C1198.335571,1400.323975 1199.223267,1397.339111 1203.881592,1397.556519 
	C1207.991333,1397.748413 1209.809814,1399.742554 1209.783569,1403.823242 
	C1209.715454,1414.437256 1209.741577,1425.051758 1209.761353,1435.666138 
	C1209.768921,1439.721558 1207.145630,1441.887695 1203.768799,1442.226929 
	C1199.508179,1442.655029 1198.290283,1439.382812 1198.250244,1435.686035 
	C1198.210571,1432.037842 1198.236572,1428.388794 1198.233887,1423.787354 
z"/>
<path fill="#060606" opacity="1.000000" stroke="none" 
	d="
M1232.407715,841.201538 
	C1232.506592,853.048523 1233.821411,853.983704 1245.205566,852.382446 
	C1256.318237,850.819275 1266.150269,853.025330 1275.692871,859.940369 
	C1285.894409,867.333008 1288.798340,878.462097 1293.169556,888.705505 
	C1295.111938,893.257385 1295.185303,899.852173 1290.741699,904.746094 
	C1288.968994,906.698364 1288.553711,909.488831 1287.810547,912.050720 
	C1287.002686,914.835266 1285.143188,916.168396 1281.828369,915.827942 
	C1274.843262,915.110413 1267.904297,915.803894 1261.093750,917.656433 
	C1256.281738,918.965393 1253.840210,924.876099 1255.976807,930.268372 
	C1257.540039,934.213623 1261.500732,935.841553 1265.987061,932.991455 
	C1273.098877,928.473328 1279.170532,930.201599 1286.577515,932.714050 
	C1297.265259,936.339294 1305.988037,941.371887 1313.223633,950.271973 
	C1322.967041,962.256714 1325.978760,979.095947 1320.674561,993.668884 
	C1317.218628,1003.164490 1312.458984,1011.265503 1304.718262,1017.715332 
	C1299.351562,1022.187073 1292.778076,1024.494141 1286.721069,1027.608276 
	C1283.404785,1029.313354 1279.282227,1029.682495 1275.209717,1025.640137 
	C1270.890015,1021.352356 1264.428955,1020.145203 1257.704346,1021.467407 
	C1253.962524,1022.203064 1251.349731,1022.451355 1251.598145,1027.104492 
	C1251.817749,1031.218628 1251.575073,1036.280884 1257.167725,1035.710693 
	C1266.385498,1034.771240 1271.488770,1041.600708 1277.815186,1045.667114 
	C1282.550171,1048.710693 1286.849487,1053.319336 1287.850586,1059.714355 
	C1288.903809,1066.443726 1295.734253,1071.447144 1293.659180,1079.153076 
	C1290.072876,1092.471069 1285.936279,1105.790161 1273.182861,1113.146240 
	C1268.207031,1116.016235 1263.859131,1122.100708 1256.011230,1119.547974 
	C1255.635376,1104.880005 1248.924072,1093.160278 1237.304688,1083.931519 
	C1236.380371,1084.557129 1235.507568,1084.992676 1234.826904,1085.632568 
	C1227.460815,1092.557251 1226.918945,1092.988403 1232.869385,1100.739136 
	C1243.388184,1114.440552 1243.086304,1130.042847 1238.620239,1144.632935 
	C1235.074585,1156.216309 1225.566162,1164.720215 1213.154053,1169.514893 
	C1202.512207,1173.625977 1193.292114,1173.089600 1182.955811,1168.420410 
	C1163.136475,1159.467407 1154.553223,1143.718262 1154.480957,1123.235596 
	C1154.170654,1035.305176 1154.469360,947.372681 1154.250610,859.441711 
	C1154.204590,840.972534 1162.058960,826.282043 1176.453613,816.536133 
	C1187.092529,809.333069 1200.411987,808.375916 1213.472778,812.828674 
	C1225.734985,817.009033 1233.104736,825.841248 1238.594849,837.067322 
	C1237.127930,839.160828 1233.151855,836.944519 1232.407715,841.201538 
z"/>
<path fill="#050505" opacity="1.000000" stroke="none" 
	d="
M1062.070801,1104.162598 
	C1064.212158,1099.979004 1065.991821,1096.471313 1069.507690,1092.699463 
	C1063.747681,1092.299194 1063.563599,1086.442139 1059.073364,1084.880005 
	C1048.969116,1092.045898 1042.989990,1101.761475 1041.641479,1114.288086 
	C1041.033325,1119.935547 1037.963379,1122.101318 1033.183105,1119.294922 
	C1022.849670,1113.228394 1012.710388,1107.185303 1008.061340,1094.646851 
	C1005.877991,1088.758179 1003.194763,1083.428101 1003.644714,1076.956665 
	C1004.657288,1062.394165 1011.282349,1050.983032 1022.941650,1042.516846 
	C1027.897705,1038.918091 1032.549072,1034.630615 1039.804565,1035.744507 
	C1043.442505,1036.302856 1046.077026,1033.364014 1045.591919,1029.296631 
	C1045.169922,1025.759888 1044.676758,1022.385620 1039.711426,1021.525146 
	C1032.328857,1020.245789 1025.566528,1021.657715 1020.391663,1026.458374 
	C1016.779541,1029.809570 1013.379639,1029.067261 1010.500977,1027.661133 
	C1000.625549,1022.837158 989.981934,1019.233582 983.762085,1008.737427 
	C974.661011,993.379150 968.276794,980.041260 977.704956,961.211792 
	C981.571960,953.489014 986.134521,946.909668 992.354492,941.135864 
	C994.852539,938.816956 997.488953,937.147705 1000.715698,936.308777 
	C1009.459961,934.035278 1017.172058,927.831482 1027.162720,930.158569 
	C1031.877563,931.256714 1031.560425,926.772461 1032.750122,923.728149 
	C1034.269531,919.839905 1032.655518,918.058594 1029.602539,916.740173 
	C1025.145386,914.815186 1020.331787,915.346313 1015.791992,915.846252 
	C1011.573914,916.310791 1010.072266,914.621704 1008.450134,911.209229 
	C1005.621704,905.259033 1002.756042,899.566223 1003.620972,892.594604 
	C1005.197266,879.889954 1010.380676,869.261719 1019.991760,860.648621 
	C1032.204956,849.703613 1046.532104,851.519043 1060.876343,853.425964 
	C1066.916748,854.229065 1069.516602,852.992004 1071.007935,847.570496 
	C1072.189209,843.277039 1070.392456,840.932922 1064.376587,838.943298 
	C1062.287598,838.252380 1060.190186,837.587341 1056.959473,836.542847 
	C1063.285156,831.373535 1065.203491,824.264099 1071.553345,819.426331 
	C1090.853760,804.721497 1120.437988,808.736267 1133.402710,830.036194 
	C1139.520020,840.086426 1141.745361,850.277954 1141.726562,861.706665 
	C1141.583130,948.357666 1141.492310,1035.009521 1141.787476,1121.659790 
	C1141.842651,1137.858765 1136.950684,1151.649658 1124.543091,1161.589355 
	C1113.367920,1170.541748 1100.701172,1177.060791 1085.562134,1170.019287 
	C1078.708862,1166.831665 1070.954224,1164.122925 1066.648560,1158.118164 
	C1062.513428,1152.351318 1056.771606,1147.166748 1056.210205,1138.846558 
	C1055.648926,1130.531006 1055.948364,1122.369629 1056.598389,1114.124390 
	C1056.913696,1110.124268 1059.438965,1107.623047 1062.070801,1104.162598 
z"/>
<path fill="#050505" opacity="1.000000" stroke="none" 
	d="
M1155.425049,1322.956299 
	C1146.895508,1341.417480 1131.676147,1343.794067 1114.424438,1342.474609 
	C1109.665527,1342.110840 1108.160767,1340.886719 1108.251587,1336.099365 
	C1108.529663,1321.444092 1108.488892,1306.778076 1108.270874,1292.120850 
	C1108.204224,1287.647461 1109.056274,1285.132568 1114.218506,1285.635742 
	C1121.435181,1286.339111 1128.599365,1285.576538 1135.959839,1287.270630 
	C1146.239502,1289.636475 1150.052002,1297.569702 1154.957520,1304.911499 
	C1155.629395,1305.917114 1156.124512,1307.835815 1155.619873,1308.700073 
	C1152.937500,1313.294678 1155.539673,1317.735107 1155.425049,1322.956299 
z"/>
<path fill="#060606" opacity="1.000000" stroke="none" 
	d="
M1398.335815,1303.871582 
	C1398.335815,1302.582275 1398.301270,1302.245728 1398.340942,1301.918213 
	C1398.969238,1296.734619 1395.879395,1290.041260 1399.802124,1286.695923 
	C1403.507812,1283.535400 1410.022949,1285.802124 1415.292847,1285.742554 
	C1418.576416,1285.705444 1421.961304,1286.047485 1425.138184,1286.857300 
	C1432.620239,1288.764038 1435.330933,1291.795288 1435.553223,1299.198486 
	C1435.794312,1307.233765 1433.173828,1311.720215 1426.705200,1314.171753 
	C1418.383667,1317.325073 1409.692261,1316.255005 1401.104492,1316.168335 
	C1399.118530,1316.148315 1398.368896,1314.678101 1398.367065,1312.803833 
	C1398.364502,1310.145508 1398.346924,1307.487061 1398.335815,1303.871582 
z"/>
<path fill="#060606" opacity="1.000000" stroke="none" 
	d="
M1016.227661,1316.321045 
	C1010.565186,1316.827881 1007.367859,1315.819946 1008.291016,1309.953979 
	C1008.648987,1307.678833 1008.200806,1305.288696 1008.378174,1302.970825 
	C1008.802307,1297.426392 1005.893982,1290.237183 1009.866028,1286.760986 
	C1013.689331,1283.414917 1020.721863,1285.916016 1026.338745,1285.707764 
	C1029.994629,1285.572144 1033.546875,1285.952759 1037.081787,1287.329468 
	C1043.859863,1289.969116 1047.746948,1294.064697 1047.525513,1300.158813 
	C1047.305176,1306.224609 1044.184814,1310.820435 1038.710938,1313.641113 
	C1033.171875,1316.495239 1027.162964,1316.387939 1021.167786,1316.323120 
	C1019.835571,1316.308838 1018.503174,1316.321167 1016.227661,1316.321045 
z"/>
<path fill="#060606" opacity="1.000000" stroke="none" 
	d="
M1528.826538,1288.385498 
	C1539.362671,1295.074951 1545.586670,1303.884766 1545.560425,1315.902710 
	C1545.535645,1327.257690 1534.291504,1339.439087 1522.969604,1341.552124 
	C1515.684570,1342.911865 1508.363281,1342.012939 1501.066284,1342.332275 
	C1497.803955,1342.475220 1496.274536,1341.281860 1496.299438,1337.759888 
	C1496.412598,1321.786133 1496.384399,1305.811035 1496.320190,1289.836670 
	C1496.308228,1286.864014 1497.564819,1285.598511 1500.470703,1285.684937 
	C1509.713013,1285.959839 1519.117798,1284.456665 1528.826538,1288.385498 
z"/>
<path fill="#050505" opacity="1.000000" stroke="none" 
	d="
M914.131897,1342.089111 
	C901.014099,1339.032227 894.708496,1330.287109 892.347351,1318.718506 
	C890.111267,1307.763062 894.256775,1298.423950 902.905457,1291.577271 
	C910.628967,1285.463013 919.825928,1284.192383 929.248230,1286.459717 
	C938.501221,1288.686523 941.758179,1291.075195 947.683838,1299.144165 
	C950.007507,1302.308350 949.920837,1306.434814 950.154419,1310.199341 
	C950.664368,1318.417358 950.363342,1326.477051 944.149719,1333.060669 
	C936.067078,1341.624390 926.340393,1344.575317 914.131897,1342.089111 
z"/>
<path fill="#050505" opacity="1.000000" stroke="none" 
	d="
M1339.649536,1310.533813 
	C1339.654907,1311.735107 1339.599365,1312.078369 1339.663452,1312.397705 
	C1342.219849,1325.140747 1334.176392,1332.617554 1325.604370,1339.341187 
	C1320.879761,1343.046997 1314.254150,1343.899536 1308.664795,1343.277344 
	C1297.307007,1342.012817 1288.831665,1336.863525 1282.889648,1325.463501 
	C1276.039917,1312.321411 1281.648315,1303.045288 1288.786499,1294.301880 
	C1296.368774,1285.014648 1307.519775,1284.619385 1318.900513,1286.509521 
	C1328.534424,1288.109497 1332.632080,1296.253662 1338.739502,1301.995850 
	C1340.718262,1303.856323 1338.973877,1307.118408 1339.649536,1310.533813 
z"/>
<path fill="#060606" opacity="1.000000" stroke="none" 
	d="
M1157.810669,1409.429688 
	C1162.664917,1406.595703 1170.147339,1409.613647 1171.523071,1414.082764 
	C1173.282471,1419.797974 1170.718628,1426.849854 1166.739746,1430.891968 
	C1164.216797,1433.455078 1161.992798,1432.538086 1159.624512,1432.004272 
	C1156.971191,1431.406250 1157.806030,1428.898438 1157.774902,1427.100952 
	C1157.677734,1421.496216 1157.744141,1415.888550 1157.810669,1409.429688 
z"/>
<path fill="#141414" opacity="1.000000" stroke="none" 
	d="
M1247.278564,1418.560791 
	C1246.265381,1421.053955 1246.531982,1425.029297 1242.525513,1423.122192 
	C1241.108521,1422.447876 1239.845703,1420.642578 1240.968018,1419.140259 
	C1242.411987,1417.207397 1244.294189,1414.554199 1247.278564,1418.560791 
z"/>
<path fill="#F9F9F9" opacity="1.000000" stroke="none" 
	d="
M1263.971680,860.903442 
	C1264.294800,874.748657 1264.178589,887.712280 1264.411987,900.669617 
	C1264.487549,904.858582 1263.384888,906.531982 1258.892822,906.420532 
	C1247.600098,906.140076 1236.232178,907.059326 1225.017090,906.085938 
	C1216.800903,905.372864 1213.257324,910.149780 1209.220947,915.369385 
	C1201.213257,925.724243 1183.313232,926.505066 1174.598389,916.949036 
	C1164.169312,905.513367 1167.451172,885.476807 1180.970093,878.045959 
	C1188.697021,873.798950 1201.392700,876.475159 1207.306519,883.494751 
	C1211.876709,888.919617 1216.919312,892.888062 1224.908691,891.824463 
	C1230.786743,891.041931 1236.866577,891.418945 1242.830688,891.747131 
	C1247.832275,892.022278 1250.138672,890.585693 1249.758057,885.133789 
	C1249.342407,879.180603 1249.607178,873.175293 1249.677124,867.193848 
	C1249.791626,857.425293 1253.900757,855.338440 1263.971680,860.903442 
z"/>
<path fill="#F8F8F8" opacity="1.000000" stroke="none" 
	d="
M1226.541504,1001.316895 
	C1213.479614,1003.941956 1200.398804,993.292908 1196.930542,983.250977 
	C1193.923218,974.543701 1198.510986,967.494934 1203.831665,961.854614 
	C1207.395142,958.077026 1211.639771,953.963745 1218.073975,953.555054 
	C1227.671265,952.945435 1234.890991,956.548889 1239.776978,964.358948 
	C1242.260376,968.328674 1245.202881,969.771545 1249.536255,969.690674 
	C1255.185791,969.585266 1260.839355,969.613098 1266.490234,969.675049 
	C1270.632568,969.720459 1272.501953,967.903442 1272.371338,963.644348 
	C1272.187988,957.666016 1272.653076,951.654785 1272.230713,945.700867 
	C1271.870972,940.628845 1274.005737,939.330994 1278.579834,939.606445 
	C1283.217285,939.885620 1287.890747,939.518188 1292.537354,939.705994 
	C1299.136108,939.972656 1299.498413,940.698486 1299.748169,946.343079 
	C1299.978149,951.541199 1297.226196,952.245911 1292.975708,952.409119 
	C1284.412476,952.737854 1284.399414,952.920532 1284.347656,961.035889 
	C1284.311646,966.687195 1283.947388,972.374023 1284.449585,977.980530 
	C1284.953613,983.606567 1282.456421,984.587524 1277.583740,984.420471 
	C1268.618408,984.113098 1259.632080,984.462402 1250.660034,984.274231 
	C1246.677979,984.190735 1242.992310,984.836609 1241.631348,988.809082 
	C1239.533203,994.932861 1235.125366,997.540588 1229.286255,998.800659 
	C1228.484009,998.973816 1227.900146,1000.159119 1226.541504,1001.316895 
z"/>
<path fill="#F7F7F7" opacity="1.000000" stroke="none" 
	d="
M1187.569824,1098.760986 
	C1187.642944,1096.285889 1187.551270,1094.613403 1187.669067,1092.955811 
	C1187.915161,1089.491577 1186.276489,1088.228638 1182.937500,1088.314209 
	C1177.943848,1088.442261 1172.934082,1088.135986 1167.950073,1088.387573 
	C1163.194580,1088.627563 1163.490234,1085.550171 1163.686523,1082.520020 
	C1163.879028,1079.550293 1162.206543,1075.520020 1167.915527,1075.619019 
	C1178.239746,1075.798096 1188.569580,1075.718994 1198.896240,1075.641846 
	C1202.106689,1075.617920 1203.951904,1076.595459 1203.699341,1080.182495 
	C1203.536011,1082.502686 1203.908691,1084.872192 1203.634644,1087.171143 
	C1202.611694,1095.752808 1204.337524,1102.723511 1213.179321,1106.588989 
	C1217.929443,1108.665771 1216.615967,1114.745972 1219.888428,1118.185181 
	C1224.008789,1122.515747 1219.552368,1126.417847 1218.754395,1130.680176 
	C1216.914429,1140.508545 1208.827881,1142.779419 1202.167603,1146.988159 
	C1201.385132,1147.482666 1200.277710,1147.551392 1199.304443,1147.642456 
	C1188.439941,1148.660034 1171.308716,1136.968262 1171.596680,1124.046997 
	C1171.791016,1115.328979 1175.406616,1108.735474 1182.726929,1104.256714 
	C1184.769165,1103.007202 1186.730713,1101.981201 1187.569824,1098.760986 
z"/>
<path fill="#F5F5F5" opacity="1.000000" stroke="none" 
	d="
M1163.916016,1041.604004 
	C1163.675537,1039.375366 1163.803589,1038.027710 1163.618652,1036.724365 
	C1162.844604,1031.271118 1165.490479,1029.661499 1170.471558,1030.272705 
	C1172.433105,1030.513428 1174.457642,1030.191650 1176.438477,1030.333984 
	C1182.504028,1030.769653 1187.050781,1030.329590 1190.700806,1023.502258 
	C1196.545898,1012.568604 1207.893188,1012.662231 1218.640503,1013.998352 
	C1224.024536,1014.667603 1231.853027,1024.449829 1232.300903,1030.311279 
	C1232.593506,1034.142212 1232.700928,1038.105591 1232.865601,1041.851685 
	C1233.167358,1048.709229 1228.687622,1051.650879 1225.463501,1055.878174 
	C1222.379517,1059.921875 1217.695801,1059.190796 1213.626831,1059.553345 
	C1203.023071,1060.497925 1193.100464,1058.566284 1188.373535,1047.672852 
	C1186.717041,1043.855347 1184.709473,1043.867554 1181.725342,1043.654175 
	C1175.865723,1043.235107 1169.864258,1044.934814 1163.916016,1041.604004 
z"/>
<path fill="#F8F8F8" opacity="1.000000" stroke="none" 
	d="
M1012.225342,945.663696 
	C1018.508850,945.663696 1023.899109,945.112915 1029.124634,945.805359 
	C1035.417725,946.639160 1039.854004,943.601868 1041.774536,938.834595 
	C1045.001099,930.825623 1050.677612,929.075134 1058.130981,929.677795 
	C1064.492310,930.192200 1071.810303,927.340393 1076.515503,934.098389 
	C1079.824219,938.850647 1084.462769,942.939087 1085.550415,948.946472 
	C1087.857422,961.689697 1075.684937,975.084290 1062.703613,974.385376 
	C1060.729736,974.279175 1058.702515,974.300842 1056.760254,974.624451 
	C1049.764893,975.790222 1044.453857,972.033813 1042.395508,966.591797 
	C1040.523560,961.642578 1037.720093,960.759766 1033.731689,960.371948 
	C1018.348267,958.876099 1018.344543,958.914001 1018.344299,974.244263 
	C1018.344055,990.337280 1018.344116,990.337463 1001.922852,990.337219 
	C996.605530,990.337158 991.285828,990.238342 985.971680,990.368408 
	C982.199341,990.460632 979.650208,989.871704 979.566467,985.103394 
	C979.446411,978.261841 980.799927,975.052856 985.675049,974.465881 
	C989.280029,974.031738 992.990234,974.126160 996.625732,974.381592 
	C1000.745544,974.671143 1002.708984,973.475525 1002.400452,968.938538 
	C1002.063049,963.976562 1002.294250,958.973572 1002.332642,953.988892 
	C1002.394226,946.006531 1002.413391,946.006653 1012.225342,945.663696 
z"/>
<path fill="#F6F6F6" opacity="1.000000" stroke="none" 
	d="
M1117.434692,907.470459 
	C1109.129883,913.448303 1105.067505,913.082703 1097.301758,908.498840 
	C1092.137451,905.450500 1087.309570,902.998901 1085.180176,896.680542 
	C1084.179565,893.711609 1080.062744,894.336426 1077.066406,894.340515 
	C1064.753296,894.357117 1052.431641,894.076294 1040.131226,894.472168 
	C1034.750732,894.645325 1033.499512,892.798889 1033.498047,887.720581 
	C1033.495850,880.141968 1034.703247,872.494812 1032.504272,864.927734 
	C1031.652710,861.997742 1032.296631,858.903442 1036.338013,858.150269 
	C1042.403198,857.019958 1046.809448,858.894104 1047.574341,863.149170 
	C1047.806885,864.442383 1047.653076,865.804199 1047.687012,867.134277 
	C1047.972046,878.311462 1047.972900,878.312073 1059.567017,878.313599 
	C1066.222778,878.314514 1072.881104,878.199707 1079.533081,878.358154 
	C1083.146606,878.444214 1086.020142,877.956543 1087.227661,873.884949 
	C1089.358154,866.699951 1097.074585,867.135132 1101.993652,863.819824 
	C1107.474365,860.126160 1112.963745,863.634033 1118.357910,866.976135 
	C1127.084961,872.383179 1132.825195,879.438904 1131.418091,889.677429 
	C1130.368286,897.315613 1126.991333,904.701721 1117.434692,907.470459 
z"/>
<path fill="#F5F5F5" opacity="1.000000" stroke="none" 
	d="
M1133.581787,1056.807129 
	C1133.678589,1058.366333 1133.683350,1059.032715 1133.690063,1059.699219 
	C1133.777344,1068.326172 1135.006226,1068.376221 1125.092285,1068.355835 
	C1121.093262,1068.347656 1117.094116,1068.334717 1113.095215,1068.358398 
	C1103.018677,1068.417969 1103.856567,1067.101929 1103.635498,1078.235474 
	C1103.518677,1084.113159 1103.564331,1088.563599 1110.950928,1091.060303 
	C1119.238525,1093.861572 1123.750854,1108.576416 1119.681885,1116.515503 
	C1117.563110,1120.649414 1116.952515,1125.297607 1111.824219,1128.425171 
	C1098.779663,1136.380371 1091.314331,1136.552856 1080.064209,1126.570435 
	C1068.076416,1115.933716 1070.229492,1098.180908 1084.746582,1090.545044 
	C1087.791260,1088.943481 1088.298950,1087.032349 1088.302246,1084.284912 
	C1088.310791,1076.953369 1088.224487,1069.620728 1088.331177,1062.290771 
	C1088.444214,1054.521729 1090.529053,1052.422363 1098.314209,1052.333740 
	C1107.644043,1052.227417 1116.976074,1052.329468 1126.307007,1052.296875 
	C1129.348389,1052.286255 1132.458984,1051.997070 1133.581787,1056.807129 
z"/>
<path fill="#F6F6F6" opacity="1.000000" stroke="none" 
	d="
M1129.781250,1012.293823 
	C1123.541504,1012.036560 1119.566040,1012.655029 1115.766113,1018.193970 
	C1111.651123,1024.191895 1104.970337,1028.971069 1096.362183,1028.292603 
	C1087.610107,1027.603027 1073.184570,1015.881470 1072.958130,1003.702698 
	C1072.842285,997.473877 1078.101074,986.670105 1087.609985,982.843323 
	C1095.171997,979.800110 1101.831909,979.219849 1109.151245,983.168396 
	C1112.465576,984.956299 1115.468384,986.420776 1116.778931,990.190857 
	C1118.393066,994.834229 1121.549561,996.570618 1126.645264,996.456848 
	C1133.647705,996.300476 1133.732910,996.729919 1133.651978,1003.575806 
	C1133.614624,1006.742920 1134.677246,1010.418579 1129.781250,1012.293823 
z"/>
<path fill="#141414" opacity="1.000000" stroke="none" 
	d="
M1190.278809,907.915161 
	C1182.458862,902.334290 1181.943481,895.890198 1188.280884,890.978271 
	C1189.238525,890.235962 1190.708130,889.949524 1191.971924,889.851685 
	C1194.250610,889.675232 1201.031616,895.953735 1201.440308,898.802124 
	C1201.975098,902.529053 1199.993896,904.980591 1196.726074,906.570007 
	C1194.921509,907.447693 1193.118408,908.214722 1190.278809,907.915161 
z"/>
<path fill="#141414" opacity="1.000000" stroke="none" 
	d="
M1223.393921,985.633057 
	C1216.961670,987.042786 1214.375854,982.721375 1211.243286,979.449524 
	C1210.827881,979.015747 1210.381592,978.204468 1210.512207,977.719177 
	C1211.586304,973.724854 1215.306641,971.683350 1217.879272,968.972656 
	C1219.480469,967.285461 1223.718506,967.159668 1225.837036,970.084167 
	C1227.888184,972.915344 1231.075317,975.618896 1229.176025,979.808289 
	C1228.100708,982.180115 1227.185303,984.825378 1223.393921,985.633057 
z"/>
<path fill="#141414" opacity="1.000000" stroke="none" 
	d="
M1200.462280,1115.666016 
	C1204.984131,1118.500732 1204.846680,1122.343262 1204.157593,1125.921265 
	C1203.454224,1129.573975 1200.383057,1131.490112 1196.881348,1131.588623 
	C1192.561890,1131.710327 1189.338989,1129.034424 1187.156738,1125.579590 
	C1185.171021,1122.435913 1187.154785,1119.596313 1189.571655,1117.892944 
	C1192.505981,1115.825073 1195.197632,1111.355469 1200.462280,1115.666016 
z"/>
<path fill="#141414" opacity="1.000000" stroke="none" 
	d="
M1208.340576,1028.013184 
	C1213.736694,1027.460938 1216.587036,1029.540161 1217.799927,1033.929565 
	C1218.615356,1036.880859 1218.813843,1039.711792 1216.579834,1042.256958 
	C1213.672119,1045.569580 1207.046021,1046.075806 1203.321411,1043.190063 
	C1200.973267,1041.370972 1201.391968,1032.619873 1204.094238,1030.081421 
	C1205.014893,1029.216553 1206.366333,1028.810181 1208.340576,1028.013184 
z"/>
<path fill="#141414" opacity="1.000000" stroke="none" 
	d="
M1053.814697,957.052002 
	C1051.452026,953.803467 1049.532593,951.708130 1053.075439,948.352295 
	C1057.125244,944.516296 1060.841553,943.155640 1065.246094,945.421082 
	C1068.569580,947.130432 1070.600342,949.757263 1069.508789,953.460266 
	C1068.477905,956.957703 1066.725220,960.434753 1062.005249,959.708801 
	C1059.317749,959.295471 1055.891479,961.722961 1053.814697,957.052002 
z"/>
<path fill="#141414" opacity="1.000000" stroke="none" 
	d="
M1100.969116,893.023743 
	C1097.359863,885.953735 1097.848022,883.607544 1103.006836,880.107483 
	C1107.120483,877.316711 1109.882935,877.979004 1114.032104,882.750916 
	C1117.572632,886.822937 1115.419556,893.313843 1109.884644,895.269592 
	C1106.746826,896.378357 1104.017822,895.513428 1100.969116,893.023743 
z"/>
<path fill="#141414" opacity="1.000000" stroke="none" 
	d="
M1094.855957,1102.511108 
	C1106.317749,1104.268311 1108.176880,1109.106567 1101.966919,1117.349487 
	C1099.496338,1120.628784 1097.067383,1119.675903 1094.296387,1119.062378 
	C1093.768066,1118.945557 1093.443604,1118.087036 1092.931152,1117.692993 
	C1083.904785,1110.752686 1084.058838,1108.770386 1094.855957,1102.511108 
z"/>
<path fill="#141414" opacity="1.000000" stroke="none" 
	d="
M1089.576416,1007.701172 
	C1086.841675,1004.093079 1087.052368,1000.870056 1089.949829,998.564941 
	C1093.479736,995.756714 1097.914185,995.186340 1102.063110,996.731750 
	C1104.988281,997.821350 1106.459106,1000.959229 1106.055664,1003.989502 
	C1105.526123,1007.967773 1103.425781,1011.445068 1099.646362,1013.261169 
	C1096.903564,1014.579285 1094.654907,1013.442078 1093.003052,1010.864746 
	C1092.317749,1009.795349 1091.177002,1009.017639 1089.576416,1007.701172 
z"/>
</svg>