<?xml version="1.0" encoding="UTF-8"?>
<svg width="24" height="24" viewBox="0 0 24 24" fill="none" xmlns="http://www.w3.org/2000/svg">
  <path d="M20 6H16V4C16 2.89 15.11 2 14 2H10C8.89 2 8 2.89 8 4V6H4C2.89 6 2.01 6.89 2.01 8L2 19C2 20.11 2.89 21 4 21H20C21.11 21 22 20.11 22 19V8C22 6.89 21.11 6 20 6ZM10 4H14V6H10V4ZM20 19H4V8H20V19Z" fill="#00A6FB"/>
  <path d="M12 12C13.1046 12 14 11.1046 14 10C14 8.89543 13.1046 8 12 8C10.8954 8 10 8.89543 10 10C10 11.1046 10.8954 12 12 12Z" fill="#00A6FB"/>
  <path d="M8 17H16C16 14.79 13.21 14 12 14C10.79 14 8 14.79 8 17Z" fill="#00A6FB"/>
</svg>
