<?xml version="1.0" encoding="UTF-8"?>
<svg width="24" height="24" viewBox="0 0 24 24" fill="none" xmlns="http://www.w3.org/2000/svg">
  <path d="M21 2H3C1.9 2 1 2.9 1 4V16C1 17.1 1.9 18 3 18H10V20H8V22H16V20H14V18H21C22.1 18 23 17.1 23 16V4C23 2.9 22.1 2 21 2ZM21 16H3V4H21V16Z" fill="#00A6FB"/>
  <path d="M12 12C13.1046 12 14 11.1046 14 10C14 8.89543 13.1046 8 12 8C10.8954 8 10 8.89543 10 10C10 11.1046 10.8954 12 12 12Z" fill="#00A6FB"/>
  <path d="M8 15H16C16 13.34 13.66 13 12 13C10.34 13 8 13.34 8 15Z" fill="#00A6FB"/>
</svg>
